<svg id="Ebene_1" data-name="Ebene 1" xmlns="http://www.w3.org/2000/svg" viewBox="0 0 312.49 479"><defs><style>.cls-1{fill:#282828;}.cls-2{opacity:0.5;}.cls-3{fill:#fff;}.cls-4{fill:#db232e;}</style></defs><title>logo</title><line class="cls-1" x1="312.49" x2="312.49" y2="479"/><g class="cls-2"><path class="cls-3" d="M138.24,110.35a36.89,36.89,0,0,1-2.76-3.49l.73-.07c1.8-.33,3.56-1.46,3.31-3.94a40.42,40.42,0,0,1,0-4.12c0-2.65-1.37-4-4-4-4.27,0-8.53,0-12.79,0-1.11,0-1.39.33-1.38,1.4,0,4.77,0,9.53,0,14.3,0,2.83-.62,2.44,2.56,2.5.79,0,1-.28,1-1,0-1.38,0-2.75,0-4.13,0-.63.22-.91.87-.9,1.38,0,2.75,0,4.13,0a1.47,1.47,0,0,1,1.28.66c1,1.26,2.15,2.38,3,3.68a3.42,3.42,0,0,0,3.67,1.72c.51-.08,1.19.28,1.5-.32s-.37-1-.61-1.57C138.68,110.73,138.41,110.57,138.24,110.35Zm-12.48-7.13c-.66,0-.91-.28-.85-.91,0,0,0-.09,0-.14.07-1.22-.49-2.77.22-3.6s2.33-.2,3.55-.3c.59,0,1.19,0,1.78,0,1.47,0,2.94,0,4.4,0,.73,0,1.12.16,1.08,1,0,1,0,2.1,0,3.16,0,.57-.22.82-.81.82C132,103.21,128.88,103.21,125.76,103.22Z" transform="translate(-24.18 166)"/><path class="cls-3" d="M118.83,98.53a3.78,3.78,0,0,0-4.07-3.85c-3.48,0-7,.1-10.45,0-1.89-.07-4.07,2.06-3.94,3.93.14,2.1,0,4.21,0,6.32v5.51c0,2.61,0,2.59,2.62,2.47.69,0,1-.23,1-1,0-1.19,0-2.38,0-3.57,0-1.54,0-1.54,1.6-1.54,2,0,4,0,6.06,0,1.13,0,2.59-.49,3.33.2s.24,2.26.29,3.43c.1,2.73-.55,2.37,2.52,2.42.73,0,1.09-.16,1.08-1C118.83,107.43,118.89,103,118.83,98.53ZM115,103.25c-.77.79-2.44.21-3.72.23-2.06,0-4.12,0-6.18,0-.85,0-1.14-.29-1.09-1.12a25.13,25.13,0,0,0,0-2.88c-.07-.94.23-1.32,1.22-1.27,1.51.08,3,0,4.53,0s3,0,4.54,0c.78,0,1.08.28,1,1C115.15,100.64,115.84,102.35,115,103.25Z" transform="translate(-24.18 166)"/><path class="cls-4" d="M293.19,107.94h1.68c1.46,0,1.46,0,1.58,1.54h11.17a26.82,26.82,0,0,0,.05-4.05h-5.95c-1.79,0-3.58,0-5.37,0a3.16,3.16,0,0,1-3.27-3.14c0-1.19,0-2.38,0-3.58,0-2.41.91-3.74,3.29-3.87a104.33,104.33,0,0,1,11.27,0c2.61.14,3.74,1.94,3.35,4.7a13.69,13.69,0,0,1-3.08.12c-.39-.43,0-1-.4-1.5h-11a23.79,23.79,0,0,0-.13,3.76c.4.37.83.22,1.23.22,3.12,0,6.24.07,9.35,0a3.73,3.73,0,0,1,4.08,4.05c-.1,1,0,2.11,0,3.16a3.4,3.4,0,0,1-3.53,3.54c-3.35,0-6.7-.14-10,0C294.57,113.06,292.52,111.28,293.19,107.94Z" transform="translate(-24.18 166)"/><path class="cls-4" d="M160.36,94.75c-3.43-.1-6.87-.09-10.3,0-2.6.07-3.92,1.54-3.93,4.1q0,6.39,0,12.78c0,.39-.15.82.21,1.21a12.49,12.49,0,0,0,3.15-.13v-5.84h11.43v5.92h3.33v-1.14c0-4.26,0-8.52,0-12.78C164.26,96.3,163,94.82,160.36,94.75Zm.56,8.67H149.46c0-1.56,0-3.09,0-4.63,0-.52.26-.74.76-.74h9.87c.56,0,.85.22.85.82C160.91,100.35,160.92,101.85,160.92,103.42Z" transform="translate(-24.18 166)"/><path class="cls-4" d="M205.9,98.88c.06-2.33-1.14-4.1-4.13-4.15-3.3,0-6.6,0-9.9,0-2.69,0-4.08,1.62-4,4.1.14,4.21,0,8.43,0,12.64,0,.44-.15.91.2,1.36a12.9,12.9,0,0,0,3.14-.13v-5.8h11.33v5.89h3.15a2.47,2.47,0,0,0,.13-1.27C205.87,107.31,205.78,103.09,205.9,98.88Zm-3.46,4.57H191.31v-5.3h11.13Z" transform="translate(-24.18 166)"/><path class="cls-4" d="M167.11,94.73c1,0,2,0,3,0,.65,0,.88.59,1.23,1L180.83,107c.18.21.38.39.57.6.45-.25.23-.66.23-1,0-3.48,0-7,0-10.45,0-1.41,0-1.41,1.43-1.42H185v18.13c-1,0-2.09,0-3.13,0-.56,0-.8-.42-1.08-.75q-4.56-5.41-9.08-10.85c-.37-.44-.77-.85-1.33-1.48v12.94a15.16,15.16,0,0,1-3.25.11Z" transform="translate(-24.18 166)"/><path class="cls-3" d="M90.07,112.85h-6.6A3.13,3.13,0,0,1,80,109.46c0-3.67.12-7.34,0-11a3.55,3.55,0,0,1,3.52-3.74c4.59-.07,9.17,0,13.76,0,.73,0,.92.28,1,1,.12,2.62.14,2.62-2.47,2.62-3.58,0-7.16,0-10.73,0-1,0-1.47.18-1.43,1.35.09,2.93.06,5.87,0,8.8,0,.91.28,1.18,1.18,1.17,4,0,8,0,12,0,1.45,0,1.45,0,1.46,1.41a7.18,7.18,0,0,0,0,.82c.11.87-.3,1.1-1.12,1.08C94.75,112.83,92.41,112.85,90.07,112.85Z" transform="translate(-24.18 166)"/><path class="cls-4" d="M290.57,94.74V98H276.13v11.53h14.44v3.14c-.32.32-.76.16-1.15.16q-6.54,0-13.07,0a3.33,3.33,0,0,1-3.66-3.64c0-3.49.09-7,0-10.46-.08-2.13,1-3.89,3.53-4C281,94.63,285.71,94.74,290.57,94.74Z" transform="translate(-24.18 166)"/><path class="cls-4" d="M258.06,98v14.8h-3.44V98h-7.19V94.83H265.2a13.09,13.09,0,0,1,.11,3.16Z" transform="translate(-24.18 166)"/><path class="cls-4" d="M211.85,109.54h14.74a13.24,13.24,0,0,1,.13,3.22h-18V94.85a14.16,14.16,0,0,1,3.17-.11Z" transform="translate(-24.18 166)"/><path class="cls-4" d="M237.14,102.44c1.62-2,3.3-4,4.76-6.07a3.32,3.32,0,0,1,3.55-1.66,13,13,0,0,0,1.75,0L244.07,99c-1.54,2.1-3.07,4.21-4.65,6.28a2.66,2.66,0,0,0-.58,1.76c0,1.87,0,3.75,0,5.69a14.94,14.94,0,0,1-3.32.13c0-1.86,0-3.68,0-5.48a3.17,3.17,0,0,0-.71-2.13c-2.25-3-4.46-6-6.69-9-.29-.4-.56-.81-1-1.45,1.32,0,2.44,0,3.55,0,.48,0,.66.44.91.75Z" transform="translate(-24.18 166)"/><path class="cls-4" d="M270.51,112.78h-3.26V94.88a1.68,1.68,0,0,1,.41-.15c2.85-.12,2.85-.12,2.85,2.74q0,6.95,0,13.9Z" transform="translate(-24.18 166)"/><path class="cls-3" d="M310.23,47.6c-2.49-.28-5-.54-7.46-.87-3.1-.41-6.2-.9-9.31-1.32s-6-.74-8.92-1.17c-3.33-.49-6.64-1.08-10-1.58s-6.94-.93-10.4-1.44-6.82-1.07-10.24-1.6-6.74-1-10.12-1.44c-3.21-.37-6.39-1-9.59-1.28s-6.26-.61-9.38-.93c-4.23-.43-8.46-.58-12.69-.72a160.15,160.15,0,0,0-20.54.75c-3.31.32-6.61.7-9.88,1.21-5.71.9-11.39,1.94-17,3.31-10.19,2.48-20.26,5.41-30.24,8.62-6,1.94-12,4-17.89,6.16-5.41,2-10.81,4-16.21,5.93a4.6,4.6,0,0,1-2,.23,27,27,0,0,0-6.16.1c-3.55.59-7,1.56-10.53,2.3a124,124,0,0,0-16,4.16A229.17,229.17,0,0,0,43.46,77.6c-3.85,1.84-7.59,3.88-11.24,6.06A23.61,23.61,0,0,0,25,89.49c-1,1.37-1.16,2.14-.32,3.6a71,71,0,0,0,4.57,6.32,10.84,10.84,0,0,0,2.21,2.48c-1.48-3.25-3.89-6-5.59-9.4,13.51-5,27.6-6.88,41.43-9.79-14,1.59-27.8,3.64-41.38,7.41,2.66-3.66,6.79-5.16,10.49-7.66,0,1.09-1.08,1.27-1.13,2,.84.7,1.61-.06,2.4,0a7.36,7.36,0,0,0,4.17-1.16C47,80.48,52,77.66,57,74.76a18.22,18.22,0,0,0,3.64-2.17c-.9-.56-1.66.4-2.52-.1l.57-.2L70.9,68.5c5.31-1.66,10.61-3.34,16-4.51a37.5,37.5,0,0,1,8-1.24c3.07,0,6,.78,9,1.24,4.13.63,8.24,1.43,12.37,2,2.92.43,5.84.91,8.79,1.21,2.66.26,5.3.1,8,.15.11,0,.25-.11.18-.46-8.26-.45-16.35-2.38-24.73-3.79,6-2.09,11.74-4.2,17.58-6.14,8.46-2.81,16.91-5.62,25.39-8.36a106.71,106.71,0,0,1,22.06-4.32c3.48-.36,7-.68,10.48-.81,3.84-.15,7.68-.49,11.53-.31a5.61,5.61,0,0,0,1.23,0c3.56-.56,7.14-.11,10.7-.26.67,0,.93.24.79.92-.87,4.41-1.72,8.83-2.61,13.24-.31,1.54-.6,1.69-2.13,1.83-2,.16-3.89.41-5.84.64l-8.25,1c-1.9.22-3.8.4-5.7.63l-8.25,1c-2.57.32-5.15.59-7.73.91s-5.31.71-8,1-5.61.56-8.42.88-5.59.7-8.38,1a1.49,1.49,0,0,1-1.06-.2A8.73,8.73,0,0,1,139,62.47a6.85,6.85,0,0,1,.8-.44A4.8,4.8,0,0,0,143.06,58c.12-.81.28-1.61.45-2.41.27-1.28,0-1.53-1.24-1.61a31.71,31.71,0,0,0-7.21.62c-2.28.38-4.41,1.09-5.84,3.15-.41.59-.52.93,0,1.52,1.47,1.75,2.79,3.61,4.31,5.31.73.82,1.23,1.89,2.35,2.37-1.9-2.86-4-5.59-5.85-8.45a6.24,6.24,0,0,1,3.67-2.54,30.93,30.93,0,0,1,5-.86c1.33-.13,2.67-.59,4-.14a9.1,9.1,0,0,1-1.26,4.61c-.91,1.39-2.81,1.62-4,2.77a28.66,28.66,0,0,0,2.88,3.54c.69.86,1.4,1.88,2.81,1.6.89-.18,1.8-.24,2.71-.34,2.89-.3,5.77-.69,8.66-1,2.57-.31,5.15-.59,7.72-.91s5.31-.75,8-1,5.42-.71,8.14-.92,5.68-.68,8.52-1c1.81-.23,3.62-.44,5.42-.65l8.26-1,6-.72c1.81-.22,3.61-.49,5.42-.65s3.89-.42,5.83-.65l8.4-1,7.59-.88,8.52-1.05,7.73-.88c2.84-.34,5.68-.71,8.52-1l7.73-.88,8.66-1c1.63-.2,3.26-.44,5.07-.69-.3-.37-.5-.41-.73-.4-2,.08-4.12.17-6.15.38-1.51.15-3,.05-4.51.21-3.11.35-6.24.87-9.24-.61a15.67,15.67,0,0,0-1.53-.6c-6-2.16-12.08-4.2-18.13-6.3a20,20,0,0,0-4.77-1c-3.4-.32-6.81-.59-10.21-.81s-6.74-.38-10.11-.57c-3.79-.21-7.59-.08-11.39-.22-4-.15-8,.19-12,.41-2.41.13-4.83.35-7.25.35-1.78,0-3.57.15-5.33.32-3.16.3-6.33.59-9.49,1a68.27,68.27,0,0,0-8.33,1.39c-3.27.85-6.49,1.88-9.7,2.94-8.28,2.74-16.59,5.43-24.8,8.41q-9.27,3.36-18.58,6.64c-1.47.53-2.85-.06-4.24-.47,3.81-1.54,7.6-3,11.43-4.34,6-2.09,12-4.25,18-6.16,4.27-1.34,8.53-2.71,12.82-4,5.68-1.68,11.4-3.25,17.13-4.77,4.31-1.14,8.66-2.14,13.06-2.88,3.94-.66,7.93-1.08,11.91-1.49s7.82-.54,11.73-.7c5.8-.25,11.61.11,17.41.44,3.23.19,6.46.49,9.69.67,1.17.06,2.36.13,3.54.27,2.3.27,4.61.51,6.91.77,2.67.3,5.34.57,8,.91,3.87.49,7.74,1,11.62,1.56,2.38.32,4.78.58,7.16.94,2.74.43,5.5.71,8.26,1,2.13.21,4.26.38,6.39.59,2.49.25,5,.53,7.46.79,2.13.21,4.26.38,6.39.6,3.07.33,6.14.73,9.21,1,2.54.25,5.08.43,7.6.79a5,5,0,0,0,2-.07C310.87,47.59,310.54,47.64,310.23,47.6ZM209.69,44.69c.22-1.37.3-1.5,1.74-1.49,4.89,0,9.76.44,14.64.6,3.14.11,6.28.42,9.43.51a13,13,0,0,1,3.57.88c6.62,2.07,13.2,4.25,20,6.75a8.14,8.14,0,0,1-3,.56c-4.09.58-8.22,1-12.32,1.45s-8.2,1.09-12.3,1.6c-2.62.33-5.25.55-7.86.87s-5.13.71-7.7,1-4.87.58-7.31.88c-1.09.13-1.09-.57-1-1.3.36-2.06.75-4.12,1.12-6.18S209.37,46.75,209.69,44.69Z" transform="translate(-24.18 166)"/><path class="cls-3" d="M274.79,56.32,109,78a18.71,18.71,0,0,1,4.19,4.71,1.66,1.66,0,0,1-1.41-.81,22.91,22.91,0,0,0-12.1-7.13,21.89,21.89,0,0,0-11,.25,22.74,22.74,0,0,0-11.36,7.07A21.85,21.85,0,0,0,72,93.36a22.51,22.51,0,0,0,.86,11.41A14.32,14.32,0,0,1,74.06,108a8.12,8.12,0,0,1-2.24-4,23.1,23.1,0,0,1-.77-13.17,22.44,22.44,0,0,1,5.77-10.87,22.72,22.72,0,0,1,13.3-7,24.12,24.12,0,0,1,14,2,7.06,7.06,0,0,1,2.14,1.19c1.05,1.1,2.23.77,3.43.61l7.43-1,6.76-.9,7.42-1c3.15-.44,6.3-.88,9.45-1.3s6.13-.77,9.2-1.18c2.34-.31,4.67-.69,7-1s4.87-.61,7.31-.92q3.31-.42,6.63-.87l7.42-1c3.19-.45,6.39-.91,9.58-1.33s6.23-.76,9.34-1.16,6.12-.84,9.18-1.25c2.43-.33,4.87-.63,7.3-.95l7.17-.94,7.29-1,8.11-1,7.31-.89c2.7-.34,5.4-.76,8.11-1,3-.28,6-.79,9-.94,2.86-.14,5.7-.62,8.56-.73,1.83-.07,3.66-.56,5.5-.28Z" transform="translate(-24.18 166)"/><path class="cls-3" d="M27.09,110.16a5.1,5.1,0,0,0,1.82.5c4.89.07,9.77.37,14.64.61,6.83.34,13.64,0,20.46.2,1.6,0,3.19,0,4.92,0-.33-2-.94-3.81-1.12-5.7-.13-1.31-.38-2.6-.46-3.93a52.42,52.42,0,0,1,0-6.94,20.82,20.82,0,0,1,3.47-10.79c-3.13,9.62-3.27,19.2.31,28.59a1.57,1.57,0,0,1-1.46.41c-6.6,0-13.21.13-19.81,0a80,80,0,0,1-8.83-.73,29.76,29.76,0,0,0-4.09-.26c-3.11,0-6.21-.49-9.32-.33a1.75,1.75,0,0,1-1.72-.91c-.4-.66.13-1.07.48-1.56,1.26-1.79,2.68-3.46,3.83-5.33a2,2,0,0,1,1.5-1.1Z" transform="translate(-24.18 166)"/><path class="cls-3" d="M44.26,104.15,37.59,92.95c-.79-1.32-.78-1.3-2.35-.81s-3,.92-4.73,1.43c.29-.76.86-.85,1.3-1,1.48-.6,3-1.12,4.47-1.73.59-.24,1-.31,1.37.33,2.74,4.42,5.5,8.82,8.31,13.31l-6.11,4.09c-.11.07-.27.17-.37.14-2.27-.61-4.67.22-7-.71a11.74,11.74,0,0,1,.94-4.15A6.74,6.74,0,0,0,32.77,97a5.74,5.74,0,0,1-1.34-2.87,7,7,0,0,1,1.57,2c.5.77,1,1.56,1.43,2.34a3.22,3.22,0,0,1,.53,2.83c-.49,1.6-.67,3.3-1.07,4.93-.2.82,0,1.09.85,1.08a13.18,13.18,0,0,1,3.82.25,1.11,1.11,0,0,0,.93-.12Z" transform="translate(-24.18 166)"/></g></svg>